<svg xmlns="http://www.w3.org/2000/svg" width="116.006" height="32" viewBox="0 0 116.006 32">
    <defs>
        <style>
            .prefix__cls-1{fill:#fff}
        </style>
    </defs>
    <g id="prefix__Group_1447" data-name="Group 1447" transform="translate(-27.263 -30.545)">
        <g id="prefix__Group_1442" data-name="Group 1442" transform="translate(27.263 30.545)">
            <path id="prefix__Path_3762" d="M87.278 303.319h-3.456a.74.74 0 0 1-.74-.74.741.741 0 0 1 .741-.741h.151a.5.5 0 0 0 .471-.68l-.9-2.409a.5.5 0 0 0-.471-.326h-4.817a.5.5 0 0 0-.471.326l-.905 2.409a.5.5 0 0 0 .471.68h.148a.74.74 0 0 1 .74.74.74.74 0 0 1-.74.74h-3.433a.74.74 0 0 1-.74-.74.74.74 0 0 1 .741-.741h.472a.5.5 0 0 0 .471-.325l3.863-10.212a.5.5 0 0 0-.471-.682h-.338q-.257 0-.257-.237v-1.007q0-.237.257-.237h2.686a1.136 1.136 0 0 1 .721.2 1.536 1.536 0 0 1 .425.652l4.418 11.524a.5.5 0 0 0 .47.323h.493a.74.74 0 0 1 .74.74.74.74 0 0 1-.74.743zm-5.119-6.259a.5.5 0 0 0 .472-.68l-1.938-5.185h-.06l-1.954 5.183a.5.5 0 0 0 .471.681z" class="prefix__cls-1" data-name="Path 3762" transform="translate(-73.327 -271.476)"/>
            <path id="prefix__Path_3763" d="M147.791 315.069h-1.876a.967.967 0 0 1-.661-.188.833.833 0 0 1-.208-.641v-5.193a2.644 2.644 0 0 0-.543-1.777 2 2 0 0 0-1.609-.632 2.746 2.746 0 0 0-2.333 1.195.441.441 0 0 0-.061.361 2.648 2.648 0 0 1 .064.6v4.531a.425.425 0 0 0 .425.424h.257a.662.662 0 0 1 .662.662.661.661 0 0 1-.661.661H137.9q-.257 0-.257-.237v-.849c0-.158.085-.237.257-.237h.622a.424.424 0 0 0 .425-.424v-4.275a2.611 2.611 0 0 0-.553-1.777 2.034 2.034 0 0 0-1.619-.632 2.5 2.5 0 0 0-1.234.247 4.474 4.474 0 0 0-.642.434 2.625 2.625 0 0 0-.355.366 3.783 3.783 0 0 0-.349.556.445.445 0 0 0-.047.2v4.879a.424.424 0 0 0 .425.424h.118a.662.662 0 0 1 .661.662.661.661 0 0 1-.661.661h-3.268q-.257 0-.257-.237v-.849c0-.158.085-.237.257-.237h.661a.424.424 0 0 0 .424-.424V307.1a.424.424 0 0 0-.424-.425h-.661q-.257 0-.257-.237v-.849q0-.237.257-.237h1.935a.735.735 0 0 1 .483.128.594.594 0 0 1 .148.464l-.039.988h.059a3.453 3.453 0 0 1 3.189-1.718 3.09 3.09 0 0 1 2.65 1.138.425.425 0 0 0 .661.045 3.628 3.628 0 0 1 2.82-1.183 3.222 3.222 0 0 1 2.458.928 3.5 3.5 0 0 1 .879 2.508l.018 4.671a.424.424 0 0 0 .424.423h.683c.171 0 .257.08.257.237v.849q0 .239-.257.239z" class="prefix__cls-1" data-name="Path 3763" transform="translate(-115.605 -283.227)"/>
            <path id="prefix__Path_3764" d="M206.38 310.409h-5.685a1.149 1.149 0 0 0-1.041 1.639 2.962 2.962 0 0 0 .655.889 3.1 3.1 0 0 0 2.162.889 3.952 3.952 0 0 0 2.063-.513 3.29 3.29 0 0 0 1.155-1.007.235.235 0 0 1 .355-.059l.533.533a.325.325 0 0 1 .119.207.456.456 0 0 1-.089.227 3.674 3.674 0 0 1-.365.435 5.93 5.93 0 0 1-.78.671 4.443 4.443 0 0 1-1.3.632 5.564 5.564 0 0 1-1.708.257 4.756 4.756 0 0 1-3.465-1.363 4.89 4.89 0 0 1-1.392-3.663 4.812 4.812 0 0 1 1.382-3.633 4.693 4.693 0 0 1 3.387-1.333 3.991 3.991 0 0 1 3.149 1.294 5.067 5.067 0 0 1 1.145 3.485v.158q-.004.255-.28.255zm-2.133-3.159a2.524 2.524 0 0 0-1.9-.731 3.18 3.18 0 0 0-2.034.671l-.017.013a1.144 1.144 0 0 0 .768 2h2.361a1.146 1.146 0 0 0 .869-1.9z" class="prefix__cls-1" data-name="Path 3764" transform="translate(-164.163 -283.227)"/>
            <path id="prefix__Path_3765" d="M241.11 315.444h-3.771q-.257 0-.257-.237v-.849q0-.237.257-.237h.229a.858.858 0 0 0 .857-.858v-5.353a.858.858 0 0 0-.857-.858h-.229q-.257 0-.257-.237v-.849q0-.237.257-.237h2.31q.256 0 .257.237v2.468h.059a2.746 2.746 0 0 1 .415-.869 4.2 4.2 0 0 1 .78-.918 4.042 4.042 0 0 1 1.224-.661 4.557 4.557 0 0 1 .8-.213 1.1 1.1 0 0 1 1.267 1.1v.119a.227.227 0 0 1-.257.257h-.415a3.577 3.577 0 0 0-3.712 3.554v2.46a.858.858 0 0 0 .858.858h.189c.171 0 .257.079.257.237v.849c-.004.158-.09.237-.261.237z" class="prefix__cls-1" data-name="Path 3765" transform="translate(-193.029 -283.602)"/>
            <path id="prefix__Path_3766" d="M272.01 306.592h-3.772q-.257 0-.257-.237v-.849q0-.237.257-.237h.04a1.046 1.046 0 0 0 1.046-1.046v-4.976a1.046 1.046 0 0 0-1.046-1.046h-.04q-.257 0-.257-.238v-.848q0-.237.257-.238h1.441a1.284 1.284 0 0 1 1.284 1.283v6.062a1.046 1.046 0 0 0 1.046 1.046c.171 0 .257.079.257.237v.849c.001.159-.085.238-.256.238zm-1.116-12.637a1.1 1.1 0 0 1 .326.79 1.032 1.032 0 0 1-.326.77 1.122 1.122 0 0 1-1.56 0 1.032 1.032 0 0 1-.326-.77 1.1 1.1 0 0 1 .326-.79 1.074 1.074 0 0 1 1.56 0z" class="prefix__cls-1" data-name="Path 3766" transform="translate(-215.616 -274.75)"/>
            <path id="prefix__Path_3767" d="M303.038 299.423a.236.236 0 0 1 .1.188.749.749 0 0 1-.089.3 3.969 3.969 0 0 1-.3.493 6.413 6.413 0 0 1-.74.839 6.267 6.267 0 0 1-1.165.918 6.874 6.874 0 0 1-1.669.681 8.04 8.04 0 0 1-2.222.3 6.378 6.378 0 0 1-4.808-2.014 7.329 7.329 0 0 1-1.925-5.283 6.8 6.8 0 0 1 2.948-6.026 6.6 6.6 0 0 1 3.764-1.111 5.493 5.493 0 0 1 3.257.938.694.694 0 0 0 1.089-.583q-.04-.237.237-.237l1.362.237c.171 0 0-.158 0 0v3.607a.954.954 0 0 1-.954.954h-.546c-.158 0-.237-.085-.237-.256v-.178a2.617 2.617 0 0 0-1.234-1.886 4.792 4.792 0 0 0-3.071-.977 4.6 4.6 0 0 0-3.307 1.451 6.482 6.482 0 0 0 .01 8.234 4.774 4.774 0 0 0 3.476 1.471 5.4 5.4 0 0 0 3.4-.967 5.6 5.6 0 0 0 1.422-1.52q.158-.3.375-.119z" class="prefix__cls-1" data-name="Path 3767" transform="translate(-231.874 -271.155)"/>
            <path id="prefix__Path_3768" d="M352.708 315.069h-1.293a.741.741 0 0 1-.849-.829v-1.007h-.04a4.519 4.519 0 0 1-3.851 1.994 3.57 3.57 0 0 1-2.33-.74 2.451 2.451 0 0 1-.908-2 2.523 2.523 0 0 1 1.412-2.38 8.253 8.253 0 0 1 3.88-.76h1.659v-.237q0-2.468-2.567-2.468a4.806 4.806 0 0 0-1.738.227 6.632 6.632 0 0 0-.76.366c-.152.093-.266.164-.346.217-.2.158-.342.172-.434.04l-.553-.691c-.093-.105-.08-.211.039-.316a3.328 3.328 0 0 1 1.382-.849 6.686 6.686 0 0 1 2.469-.415q4.146 0 4.147 3.95v4.156a.424.424 0 0 0 .425.424h.256a.662.662 0 0 1 .662.662.662.662 0 0 1-.662.656zm-2.32-4.117a.425.425 0 0 0-.425-.425h-1.135a12.526 12.526 0 0 0-1.9.119 2.8 2.8 0 0 0-1.273.514 1.286 1.286 0 0 0-.523 1.086 1.384 1.384 0 0 0 .563 1.135 2.3 2.3 0 0 0 1.471.445 3.883 3.883 0 0 0 3.123-1.577.438.438 0 0 0 .1-.274z" class="prefix__cls-1" data-name="Path 3768" transform="translate(-270.772 -283.227)"/>
            <path id="prefix__Path_3769" d="M390.387 315.207a3.948 3.948 0 0 1-2.113-.494 2.5 2.5 0 0 1-.987-.928h-.04q.04.968.04 1.026 0 .257-.276.257h-.039a.889.889 0 0 1-.89-.889v-1.7a.89.89 0 0 1 .89-.889h.137q.276 0 .276.257v.395a2.341 2.341 0 0 0 .83 1.086 2.932 2.932 0 0 0 1.875.592q2.211 0 2.212-1.54a.97.97 0 0 0-.612-.859 6.533 6.533 0 0 0-1.49-.543q-.879-.217-1.747-.493a3.546 3.546 0 0 1-1.481-.9 2.145 2.145 0 0 1-.612-1.57 2.506 2.506 0 0 1 .928-2.044 3.617 3.617 0 0 1 2.37-.76 3.26 3.26 0 0 1 2.8 1.146h.04l-.04-.731a.227.227 0 0 1 .257-.257.889.889 0 0 1 .889.889v1.479a.889.889 0 0 1-.889.889h-.137c-.185 0-.277-.085-.277-.257v-.269a1.437 1.437 0 0 0-.622-1.057 2.417 2.417 0 0 0-1.61-.523 2.521 2.521 0 0 0-1.54.415 1.285 1.285 0 0 0-.553 1.076 1.137 1.137 0 0 0 .622 1.027 5.386 5.386 0 0 0 1.511.572q.888.208 1.776.464a3.589 3.589 0 0 1 1.511.85 2.154 2.154 0 0 1 .623 1.639 2.413 2.413 0 0 1-.9 1.846 4.017 4.017 0 0 1-2.732.798z" class="prefix__cls-1" data-name="Path 3769" transform="translate(-301.946 -283.227)"/>
            <path id="prefix__Path_3770" d="M430.732 315.069h-1.293a.742.742 0 0 1-.849-.829v-1.007h-.039a4.52 4.52 0 0 1-3.851 1.994 3.57 3.57 0 0 1-2.33-.74 2.45 2.45 0 0 1-.908-2 2.523 2.523 0 0 1 1.412-2.38 8.25 8.25 0 0 1 3.879-.76h1.659v-.237q0-2.468-2.566-2.468a4.8 4.8 0 0 0-1.738.227 6.644 6.644 0 0 0-.76.366c-.151.093-.267.164-.346.217-.2.158-.343.172-.434.04l-.553-.691c-.092-.105-.079-.211.039-.316a3.323 3.323 0 0 1 1.382-.849 6.682 6.682 0 0 1 2.468-.415q4.147 0 4.147 3.95v4.156a.424.424 0 0 0 .424.425h.257a.661.661 0 0 1 .661.662.661.661 0 0 1-.661.655zm-2.32-4.117a.425.425 0 0 0-.425-.425h-1.135a12.522 12.522 0 0 0-1.9.119 2.8 2.8 0 0 0-1.273.514 1.285 1.285 0 0 0-.523 1.086 1.384 1.384 0 0 0 .563 1.135 2.3 2.3 0 0 0 1.471.445 3.882 3.882 0 0 0 3.123-1.577.439.439 0 0 0 .1-.274z" class="prefix__cls-1" data-name="Path 3770" transform="translate(-327.807 -283.227)"/>
            <path id="prefix__Path_3771" d="M372.168 241.028l-9.353-5.784c0-.024.007-.047.007-.071V230a1.236 1.236 0 1 0-2.471 0v3.722L344.1 223.67c-.016-.01-.034-.016-.052-.025a1.364 1.364 0 0 0-.129-.063c-.039-.016-.077-.032-.117-.044a1.194 1.194 0 0 0-.123-.032 1.294 1.294 0 0 0-.131-.023c-.041 0-.081-.006-.122-.007a1.255 1.255 0 0 0-.132 0c-.041 0-.082.01-.123.017a1.3 1.3 0 0 0-.131.029c-.039.011-.076.024-.114.039a1.336 1.336 0 0 0-.133.059c-.017.009-.035.013-.052.023l-17.756 10.109a1.331 1.331 0 1 0 1.317 2.313l17.069-9.719 21.592 13.354v14.374a1.235 1.235 0 0 0 2.471 0V241.23l3.335 2.062a1.33 1.33 0 1 0 1.4-2.263z" data-name="Path 3771" transform="translate(-256.793 -223.476)" style="fill:#bd2536"/>
            <path id="prefix__Path_3772" d="M383.008 252.467l1.255 2.687a.2.2 0 0 0 .15.113l2.84.436a.2.2 0 0 1 .118.33l-2.055 2.291a.2.2 0 0 0-.048.169l.516 2.827a.2.2 0 0 1-.292.21l-2.567-1.411a.2.2 0 0 0-.192 0l-2.5 1.392a.2.2 0 0 1-.293-.206l.483-2.98a.2.2 0 0 0-.054-.17l-2.056-2.119a.2.2 0 0 1 .113-.335l2.822-.433a.2.2 0 0 0 .15-.113l1.255-2.687a.2.2 0 0 1 .355-.001z" class="prefix__cls-1" data-name="Path 3772" transform="translate(-296.221 -244.584)"/>
        </g>
    </g>
</svg>
