<svg xmlns="http://www.w3.org/2000/svg" width="48.5" height="32" viewBox="0 0 48.5 32">
    <defs>
        <style>
            .prefix__cls-1{fill:#fff}
        </style>
    </defs>
    <g id="prefix__Group_1448" data-name="Group 1448" transform="translate(-118.981 -112.545)">
        <g id="prefix__Group_1443" data-name="Group 1443" transform="translate(118.981 112.545)">
            <path id="prefix__Path_3762" d="M87.281 303.389h-3.456a.742.742 0 0 1-.741-.744.743.743 0 0 1 .741-.744h.151a.506.506 0 0 0 .472-.684l-.905-2.421a.5.5 0 0 0-.471-.328h-4.814a.5.5 0 0 0-.472.328l-.905 2.421a.506.506 0 0 0 .471.684h.148a.742.742 0 0 1 .741.744.742.742 0 0 1-.741.744h-3.432a.742.742 0 0 1-.741-.744.742.742 0 0 1 .741-.744h.472a.5.5 0 0 0 .471-.327l3.865-10.259a.506.506 0 0 0-.471-.685h-.338q-.257 0-.257-.238v-1.012q0-.238.257-.238h2.686a1.132 1.132 0 0 1 .721.2 1.544 1.544 0 0 1 .425.655l4.419 11.581a.5.5 0 0 0 .47.325h.493a.742.742 0 0 1 .741.744.742.742 0 0 1-.741.742zm-5.121-6.29a.506.506 0 0 0 .472-.683l-1.938-5.21h-.06l-1.955 5.209a.506.506 0 0 0 .471.685z" class="prefix__cls-1" data-name="Path 3762" transform="translate(-61.005 -271.389)"/>
            <path id="prefix__Path_3771" d="M372.181 241.115l-9.355-5.813c0-.024.007-.047.007-.071v-5.2a1.236 1.236 0 1 0-2.472 0v3.74l-16.257-10.1c-.016-.01-.034-.016-.052-.026a1.367 1.367 0 0 0-.129-.063c-.039-.016-.077-.032-.117-.044a1.193 1.193 0 0 0-.123-.032 1.285 1.285 0 0 0-.131-.023c-.041 0-.081-.006-.122-.007a1.255 1.255 0 0 0-.132 0c-.041 0-.082.01-.123.017a1.291 1.291 0 0 0-.131.029c-.039.011-.076.024-.114.039a1.339 1.339 0 0 0-.133.059c-.017.009-.035.013-.053.023l-17.76 10.159a1.338 1.338 0 0 0 .66 2.5 1.319 1.319 0 0 0 .657-.175l17.074-9.767 21.6 13.419v14.444a1.236 1.236 0 1 0 2.471 0v-12.905l3.335 2.072a1.327 1.327 0 0 0 1.832-.434 1.341 1.341 0 0 0-.432-1.841z" data-name="Path 3771" transform="translate(-324.312 -223.476)" style="fill:#bd2536"/>
            <path id="prefix__Path_3772" d="M383.009 252.467l1.255 2.7a.2.2 0 0 0 .15.113l2.84.438a.2.2 0 0 1 .118.331l-2.056 2.3a.2.2 0 0 0-.048.17l.516 2.841a.2.2 0 0 1-.292.211l-2.567-1.418a.2.2 0 0 0-.192 0l-2.5 1.4a.2.2 0 0 1-.294-.207l.484-2.995a.2.2 0 0 0-.054-.171l-2.056-2.129a.2.2 0 0 1 .113-.337l2.823-.435a.2.2 0 0 0 .15-.113l1.255-2.7a.2.2 0 0 1 .355.001z" class="prefix__cls-1" data-name="Path 3772" transform="translate(-363.736 -245.978)"/>
        </g>
    </g>
</svg>
