<svg xmlns="http://www.w3.org/2000/svg" id="prefix__settings_icon" width="30.634" height="32" viewBox="0 0 30.634 32">
    <defs>
        <style>
            .prefix__cls-1{fill:#4683b6}
        </style>
    </defs>
    <path id="prefix__Path_3542" d="M560.5 253.274a3.615 3.615 0 11-3.615 3.615 3.589 3.589 0 013.615-3.615m0-2.025a5.639 5.639 0 105.64 5.64 5.646 5.646 0 00-5.64-5.64z" class="prefix__cls-1" data-name="Path 3542" transform="translate(-545.184 -240.888)"/>
    <path id="prefix__Path_3543" d="M554.682 234.34a.745.745 0 01.744.744v2.757a2.025 2.025 0 001.157 1.829c.231.11.464.232.687.361s.453.274.669.424a2.024 2.024 0 002.163.088l2.384-1.377a.732.732 0 01.366-.1.743.743 0 01.2.027.727.727 0 01.449.348l2.185 3.784a.747.747 0 01-.24.991l-.054.036-2.362 1.364a2.025 2.025 0 00-1.005 1.923c.023.267.034.528.034.776s-.011.513-.034.779a2.025 2.025 0 001.005 1.925l2.386 1.378a.737.737 0 01.272 1l-2.193 3.8a.717.717 0 01-.445.341.748.748 0 01-.2.027.721.721 0 01-.359-.1l-2.39-1.381a2.024 2.024 0 00-2.165.089c-.215.148-.438.291-.665.421s-.458.252-.692.363a2.024 2.024 0 00-1.156 1.829v2.756a.746.746 0 01-.744.745H550.3a.745.745 0 01-.744-.745v-2.756a2.025 2.025 0 00-1.156-1.829c-.233-.111-.465-.233-.69-.363s-.447-.27-.662-.419a2.023 2.023 0 00-2.166-.09l-2.388 1.379a.724.724 0 01-.365.1.747.747 0 01-.645-.367l-2.191-3.8a.74.74 0 01.269-1.009l2.389-1.379a2.025 2.025 0 001.005-1.924c-.022-.266-.034-.527-.034-.777s.011-.51.034-.776a2.025 2.025 0 00-1.005-1.924l-2.386-1.378a.74.74 0 01-.269-1.016l2.186-3.787a.75.75 0 01.647-.371.713.713 0 01.36.1l.03.018c.029.019.058.037.088.054l2.274 1.313a2.024 2.024 0 002.166-.091c.216-.149.439-.291.662-.42s.457-.252.69-.363a2.025 2.025 0 001.156-1.829v-2.757a.745.745 0 01.744-.744h4.377m0-2.025H550.3a2.772 2.772 0 00-2.769 2.769v2.757c-.283.135-.563.281-.834.438s-.542.329-.8.51l-2.274-1.312c-.035-.023-.071-.045-.108-.067a2.768 2.768 0 00-3.78 1.009l-2.187 3.789a2.764 2.764 0 001.009 3.78l2.388 1.379c-.027.322-.041.638-.041.947s.014.625.041.947l-2.389 1.38a2.765 2.765 0 00-1.009 3.778l2.189 3.793a2.767 2.767 0 003.778 1.008l2.386-1.378c.261.181.529.351.8.509s.551.3.834.438v2.756a2.772 2.772 0 002.769 2.769h4.377a2.772 2.772 0 002.769-2.769v-2.756q.425-.2.835-.439c.275-.159.544-.329.8-.51l2.39 1.381a2.764 2.764 0 003.771-1.017l2.19-3.793a2.765 2.765 0 00-1.017-3.77l-2.383-1.376c.027-.323.041-.641.041-.951s-.014-.624-.041-.947l2.389-1.379a1.216 1.216 0 00.106-.068 2.769 2.769 0 00.9-3.7l-2.187-3.789a2.76 2.76 0 00-3.774-1.018l-2.388 1.379q-.392-.271-.806-.51t-.834-.438v-2.757a2.772 2.772 0 00-2.769-2.769z" class="prefix__cls-1" data-name="Path 3543" transform="translate(-537.174 -232.315)"/>
</svg>
