<svg xmlns="http://www.w3.org/2000/svg" id="prefix__Group_1599" width="37" height="37" data-name="Group 1599" viewBox="0 0 37 37">
    <defs>
        <style>
            .prefix__cls-1{fill:#5aaef3}
        </style>
    </defs>
    <path id="prefix__Path_3486" d="M18.5 0A18.5 18.5 0 1 0 37 18.5 18.521 18.521 0 0 0 18.5 0zm0 34.357A15.857 15.857 0 1 1 34.357 18.5 15.875 15.875 0 0 1 18.5 34.357z" class="prefix__cls-1" data-name="Path 3486"/>
    <path id="prefix__Path_3487" d="M156.219 154.325l5.752-5.752a1.34 1.34 0 0 0-1.894-1.894l-5.752 5.752-5.752-5.752a1.339 1.339 0 0 0-1.894 1.894l5.752 5.752-5.752 5.752a1.34 1.34 0 1 0 1.894 1.894l5.752-5.752 5.752 5.752a1.34 1.34 0 0 0 1.894-1.894z" class="prefix__cls-1" data-name="Path 3487" transform="translate(-135.825 -135.825)"/>
</svg>
