<svg version="1.1" id="Layer_1" xmlns="http://www.w3.org/2000/svg" xmlns:xlink="http://www.w3.org/1999/xlink" x="0px" y="0px"
	 viewBox="0 0 20 17" style="enable-background:new 0 0 20 17;" xml:space="preserve">
<style type="text/css">
	.st0{fill:#5AAEF3;}
</style>
<g id="close_menu" transform="translate(1 1)">
	<g id="Path_3774">
		<path class="st0" d="M18,1H0c-0.6,0-1-0.4-1-1s0.4-1,1-1h18c0.6,0,1,0.4,1,1S18.6,1,18,1z"/>
	</g>
	<g id="Path_3775">
		<path class="st0" d="M18,8.5H0c-0.6,0-1-0.4-1-1c0-0.6,0.4-1,1-1h18c0.6,0,1,0.4,1,1C19,8.1,18.6,8.5,18,8.5z"/>
	</g>
	<g id="Path_3776">
		<path class="st0" d="M18,16H0c-0.6,0-1-0.4-1-1s0.4-1,1-1h18c0.6,0,1,0.4,1,1S18.6,16,18,16z"/>
	</g>
</g>
</svg>
