<svg xmlns="http://www.w3.org/2000/svg" id="prefix__Layer_1" width="36" height="32" data-name="Layer 1" viewBox="0 0 36 32">
    <path id="prefix__Path_3496" d="M35.53 7.433L29.239.541a1.669 1.669 0 00-2.424-.073l-2.52 2.477a3.609 3.609 0 01-2.666 1.011 5.23 5.23 0 00-2.853.749l-1.512-.524a4.209 4.209 0 00-2.591 0A2.645 2.645 0 0111.93 3.5L9.642 1.127a1.659 1.659 0 00-2.409 0L.509 8.113a1.825 1.825 0 000 2.508l3.453 3.587a1.475 1.475 0 01.408 1.047 3.205 3.205 0 00.887 2.22l.156.157-1.351 1.39a2.9 2.9 0 00-.585 3.07 2.713 2.713 0 002.505 1.737h.035a2.747 2.747 0 002.7 2.728h.1a2.744 2.744 0 002.7 2.671h.03a2.816 2.816 0 001.7 2.543 2.638 2.638 0 002.921-.616l1.568-1.629 1.568 1.629a2.633 2.633 0 002.98.6 2.82 2.82 0 001.648-2.655 2.766 2.766 0 002.6-2.807v-.063a2.675 2.675 0 001.815-.822 2.841 2.841 0 00.786-1.953 2.7 2.7 0 002.431-1.59 2.9 2.9 0 00-.314-2.966 4.676 4.676 0 00.761-2.383l.086-1.927a2.845 2.845 0 01.746-1.8l2.692-2.9a1.82 1.82 0 000-2.461zM5.216 21.808a1.158 1.158 0 010-1.571L8.7 16.618a1.06 1.06 0 011.512 0 1.158 1.158 0 010 1.571l-3.483 3.619a1.043 1.043 0 01-1.512 0zm2.742 2.723a1.152 1.152 0 010-1.571l3.483-3.619a1.039 1.039 0 01.761-.33 1.084 1.084 0 011.006.7 1.158 1.158 0 01-.24 1.231l-3.482 3.615a1.05 1.05 0 01-1.527-.026zm2.8 2.692a1.158 1.158 0 010-1.571l3.483-3.666a1.059 1.059 0 01.766-.33 1.08 1.08 0 01.983.69 1.153 1.153 0 01-.222 1.211l-3.483 3.666a1.034 1.034 0 01-.761.33 1.054 1.054 0 01-.766-.33zm4.264 2.749a1.058 1.058 0 01-1.09.413 1.1 1.1 0 01-.82-.852 1.144 1.144 0 01.4-1.132l3.478-3.613a1.068 1.068 0 01.766-.33 1.049 1.049 0 01.756.325 1.158 1.158 0 010 1.571zm6.966 0a1.05 1.05 0 01-1.512 0l-1.568-1.629.756-.817a2.841 2.841 0 00.6-.958l1.638 1.7.04.037.045.047a1.152 1.152 0 010 1.592zm7.893-8.546a1.054 1.054 0 01-.766.33 1.034 1.034 0 01-.761-.33L24.869 17.8a.894.894 0 00-.282-.189.8.8 0 00-1.013.3.873.873 0 00.121 1.089l3.483 3.619a1.153 1.153 0 01-.094 1.473 1.049 1.049 0 01-1.418.1l-3.483-3.6a.8.8 0 00-.809-.272.833.833 0 00-.6.623.869.869 0 00.258.842l.055.058.025.031 3.483 3.619a1.154 1.154 0 01.318.8 1.127 1.127 0 01-.657 1.025 1.053 1.053 0 01-1.168-.213l-3.423-3.54a2.642 2.642 0 00-1.915-.827h-.03a2.845 2.845 0 00-.791-1.927 2.667 2.667 0 00-2.016-.817 2.737 2.737 0 00-2.737-2.666 2.81 2.81 0 00-1.7-2.526 2.633 2.633 0 00-2.908.609l-1.011 1.013-.157-.167a1.459 1.459 0 01-.4-1.021 3.205 3.205 0 00-.887-2.22l-3.448-3.6a.075.075 0 010-.11l6.717-6.985a.078.078 0 01.111 0L10.776 4.7a4.232 4.232 0 004.35 1.115 2.629 2.629 0 011.618 0l.5.162-3.962 4.027a2.974 2.974 0 00-.575 3.242 3.043 3.043 0 002.147 1.712 3.9 3.9 0 002.9-.744 6 6 0 001.22-1.047 6.5 6.5 0 01.68-.665 1.972 1.972 0 011.109-.435 3.748 3.748 0 011.311.33l.131.047a4.154 4.154 0 011.621 1.056c.156.168.68.717 2.52 2.645l.05.063 3.483 3.619a1.157 1.157 0 010 1.6zm4.471-12.72l-2.692 2.906a4.575 4.575 0 00-1.2 2.891l-.086 1.927a3.012 3.012 0 01-.307 1.21l-5.1-5.315a5.793 5.793 0 00-2.233-1.472l-.126-.047a5.045 5.045 0 00-1.941-.424 3.607 3.607 0 00-2.016.775 7.674 7.674 0 00-.857.812 4.735 4.735 0 01-.882.8 2.5 2.5 0 01-1.764.55 1.448 1.448 0 01-1.008-.775 1.228 1.228 0 01.242-1.314l4-4.069a7.384 7.384 0 01.943-.812 3.611 3.611 0 012.223-.686A5.233 5.233 0 0025.4 4.181l2.52-2.472a.078.078 0 01.111 0l6.32 6.891a.092.092 0 010 .105z" data-name="Path 3496" transform="translate(-.009 .019)" style="fill:#4683b6"/>
</svg>
