<svg xmlns="http://www.w3.org/2000/svg" id="prefix__Layer_1" width="36" height="32" data-name="Layer 1" viewBox="0 0 36 32">
    <path id="prefix__Path_3497" d="M33.966 13.918h-.831v-5.31a3.884 3.884 0 00-3.808-3.946h-.816V2.655A2.6 2.6 0 0025.963 0H3.12A3.179 3.179 0 000 3.186v26.159A2.6 2.6 0 002.549 32h26.758a3.725 3.725 0 002.7-1.143 4.045 4.045 0 001.13-2.8v-5.334h.856A2.051 2.051 0 0036 20.641V16a2.081 2.081 0 00-2.034-2.082zM3.12 1.837h22.832a.812.812 0 01.8.818v1.986H3.12a1.375 1.375 0 01-1.346-1.4 1.375 1.375 0 011.346-1.4zm28.216 26.217a2.083 2.083 0 01-2.036 2.124H2.549a.812.812 0 01-.8-.823v-23.2a3.012 3.012 0 001.356.324H29.3A2.083 2.083 0 0131.341 8.6v5.31h-6.046a2.051 2.051 0 00-2.008 2.082v4.641a2.051 2.051 0 002.008 2.082h6.041v5.31zM34.2 20.62a.244.244 0 01-.067.174.225.225 0 01-.167.07H25.3a.225.225 0 01-.167-.07.244.244 0 01-.067-.174V16a.245.245 0 01.234-.244h8.666A.245.245 0 0134.2 16v4.641z" data-name="Path 3497" style="fill:#4683b6"/>
</svg>
