<svg xmlns="http://www.w3.org/2000/svg" id="prefix__Layer_1" width="33.26" height="32" data-name="Layer 1" viewBox="0 0 33.26 32">
    <path id="prefix__Path_3498" d="M29.7 32h-5.956a3.558 3.558 0 01-3.532-3.553v-3.815a3.138 3.138 0 00-3.138-3.132h-.851a3.133 3.133 0 00-3.133 3.133v3.814A3.558 3.558 0 019.532 32H3.558A3.558 3.558 0 010 28.446V13.409a3.59 3.59 0 011.415-2.84L14.489.712a3.569 3.569 0 014.282 0l13.074 9.856a3.59 3.59 0 011.415 2.84v15.038A3.558 3.558 0 0129.7 32zM16.2 19.515h.851a5.122 5.122 0 015.117 5.117v3.814a1.6 1.6 0 001.6 1.6h5.957a1.6 1.6 0 001.6-1.6V13.409a1.6 1.6 0 00-.628-1.255L17.579 2.3a1.6 1.6 0 00-1.9 0L2.606 12.153a1.6 1.6 0 00-.622 1.255v15.038a1.6 1.6 0 001.6 1.6H9.51a1.6 1.6 0 001.6-1.6v-3.814a5.128 5.128 0 015.1-5.117z" data-name="Path 3498" transform="translate(0 .001)" style="fill:#4683b6"/>
</svg>
