<svg xmlns="http://www.w3.org/2000/svg" id="prefix__Layer_1" width="27.448" height="32" data-name="Layer 1" viewBox="0 0 27.448 32">
    <path id="prefix__Path_3499" d="M13.727 32a2.115 2.115 0 01-.808-.159A20.58 20.58 0 010 12.725V6.911a2.115 2.115 0 011.317-1.965L12.909.161a2.181 2.181 0 011.631 0l11.591 4.785a2.115 2.115 0 011.317 1.965v5.814a20.58 20.58 0 01-12.919 19.118 2.058 2.058 0 01-.802.157zm0-30.1a.293.293 0 00-.093 0L2.058 6.69a.232.232 0 00-.139.206v5.814a18.676 18.676 0 0011.715 17.368.221.221 0 00.18 0 18.676 18.676 0 0011.73-17.354V6.911a.221.221 0 00-.139-.206L13.814 1.92a.242.242 0 00-.087-.015zm-.515 17.4a.957.957 0 01-.612-.262l-2.624-2.347a.953.953 0 011.271-1.42l1.924 1.724 4.9-5.294a.952.952 0 111.4 1.291l-5.541 6a.952.952 0 01-.7.3z" data-name="Path 3499" transform="translate(0 -.003)" style="fill:#4683b6"/>
</svg>
