<svg xmlns="http://www.w3.org/2000/svg" id="prefix__Layer_1" width="34.319" height="32" data-name="Layer 1" viewBox="0 0 34.319 32">
    <defs>
        <style>
            .prefix__cls-1{fill:#4683b6}
        </style>
    </defs>
    <path id="prefix__Path_3500" d="M46.2 13.47l-4.871-11.3A2.616 2.616 0 0037.88.8L26.592 5.679a2.611 2.611 0 00-1.365 3.435l4.871 11.3a2.606 2.606 0 001.431 1.4 2.647 2.647 0 00.968.185 2.611 2.611 0 001.03-.216l11.3-4.871A2.616 2.616 0 0046.2 13.47zm-2.137 1.684l-11.286 4.871a.7.7 0 01-.541 0 .726.726 0 01-.391-.381L26.974 8.362a.716.716 0 010-.546.69.69 0 01.376-.386l11.292-4.872a.664.664 0 01.268-.062.747.747 0 01.263.051.711.711 0 01.391.381l4.871 11.292a.711.711 0 01-.376.932z" class="prefix__cls-1" data-name="Path 3500" transform="translate(-12.09 -.299)"/>
    <path id="prefix__Path_3501" d="M30.119 20.993l-9.665 4.119a4.459 4.459 0 00-5.232-1.828L5.335.628A.947.947 0 004.82.113.937.937 0 004.079.1L.51 1.756a.953.953 0 10.8 1.725l2.671-1.236 9.593 22.018a4.5 4.5 0 107.6 3.265 4.4 4.4 0 00-.051-.644l9.742-4.119a.953.953 0 00-.741-1.756zm-13.45 9.13a2.575 2.575 0 112.575-2.575 2.575 2.575 0 01-2.575 2.575z" class="prefix__cls-1" data-name="Path 3501" transform="translate(.083 -.031)"/>
</svg>
