<svg xmlns="http://www.w3.org/2000/svg" id="prefix__doc_list_icon" width="14.134" height="16" viewBox="0 0 14.134 16">
    <defs>
        <style>
            .prefix__cls-1{fill:#5aaef3}
        </style>
    </defs>
    <g id="prefix__Group_1298" data-name="Group 1298">
        <path id="prefix__Path_3711" d="M558.145 490.668l-4.36-3.926c-.01-.009-.022-.016-.033-.024l-.034-.026a1.155 1.155 0 0 0-.7-.244h-7.469a1.154 1.154 0 0 0-1.153 1.153v13.694a1.154 1.154 0 0 0 1.153 1.153h11.828a1.154 1.154 0 0 0 1.153-1.153v-9.771a1.159 1.159 0 0 0-.385-.856zm-4.182-2.337l3.194 2.877h-3.194zm3.41 13.055h-11.828a.09.09 0 0 1-.091-.091V487.6a.09.09 0 0 1 .091-.091h7.355v4.229a.531.531 0 0 0 .531.531h4.033v9.025a.09.09 0 0 1-.091.092z" class="prefix__cls-1" data-name="Path 3711" transform="translate(-544.392 -486.448)"/>
        <path id="prefix__Path_3712" d="M562.283 510.909h-7.289a.531.531 0 0 0 0 1.062h7.289a.531.531 0 1 0 0-1.062z" class="prefix__cls-1" data-name="Path 3712" transform="translate(-551.572 -503.886)"/>
        <path id="prefix__Path_3713" d="M562.283 521.9h-7.289a.531.531 0 0 0 0 1.062h7.289a.531.531 0 0 0 0-1.062z" class="prefix__cls-1" data-name="Path 3713" transform="translate(-551.572 -511.721)"/>
    </g>
    <path id="prefix__Path_3714" d="M558.145 490.668l-4.36-3.926c-.01-.009-.022-.016-.033-.024l-.034-.026a1.155 1.155 0 0 0-.7-.244h-7.469a1.154 1.154 0 0 0-1.153 1.153v13.694a1.154 1.154 0 0 0 1.153 1.153h11.828a1.154 1.154 0 0 0 1.153-1.153v-9.771a1.159 1.159 0 0 0-.385-.856zm-4.182-2.337l3.194 2.877h-3.194zm3.41 13.055h-11.828a.09.09 0 0 1-.091-.091V487.6a.09.09 0 0 1 .091-.091h7.355v4.229a.531.531 0 0 0 .531.531h4.033v9.025a.09.09 0 0 1-.091.092z" class="prefix__cls-1" data-name="Path 3714" transform="translate(-544.392 -486.448)"/>
</svg>
