<svg xmlns="http://www.w3.org/2000/svg" id="prefix__condition_icon" width="16.393" height="16" viewBox="0 0 16.393 16">
    <path id="prefix__Path_3679" d="M315.225 483.606v-4.353a.519.519 0 0 0-.519-.519h-5.628V475.9a2.11 2.11 0 1 0-1.038 0v2.837h-5.628a.519.519 0 0 0-.519.519v4.354a2.109 2.109 0 1 0 1.038-.033v-3.8h11.256v3.8a2.112 2.112 0 1 0 1.039.031zm-7.739-9.752a1.072 1.072 0 1 1 1.072 1.072 1.073 1.073 0 0 1-1.071-1.072zm-3.94 11.78a1.072 1.072 0 1 1-1.072-1.072 1.073 1.073 0 0 1 1.072 1.072zm11.1 1.072a1.072 1.072 0 1 1 1.072-1.072 1.073 1.073 0 0 1-1.071 1.072z" data-name="Path 3679" transform="translate(-300.364 -471.744)" style="fill:#5aaef3"/>
</svg>
