<svg xmlns="http://www.w3.org/2000/svg" id="prefix__checlist_icon" width="14.134" height="16" viewBox="0 0 14.134 16">
    <defs>
        <style>
            .prefix__cls-1{fill:#5aaef3}
        </style>
    </defs>
    <path id="prefix__Path_3709" d="M614.759 513.906a.619.619 0 0 1-.413-.158l-1.71-1.53a.62.62 0 0 1 .827-.925l1.256 1.124 3.2-3.451a.62.62 0 0 1 .91.843l-3.61 3.9a.619.619 0 0 1-.46.197z" class="prefix__cls-1" data-name="Path 3709" transform="translate(-609.032 -502.36)"/>
    <path id="prefix__Path_3710" d="M614.351 490.668l-4.36-3.926c-.01-.009-.022-.016-.033-.024s-.022-.018-.035-.026a1.154 1.154 0 0 0-.7-.244h-7.469a1.154 1.154 0 0 0-1.154 1.152v13.694a1.154 1.154 0 0 0 1.153 1.153h11.828a1.154 1.154 0 0 0 1.153-1.153v-9.771a1.161 1.161 0 0 0-.383-.855zm-4.182-2.337l3.195 2.877h-3.195zm3.411 13.055h-11.829a.09.09 0 0 1-.091-.091V487.6a.09.09 0 0 1 .091-.091h7.355v4.229a.531.531 0 0 0 .531.531h4.032v9.025a.09.09 0 0 1-.09.092z" class="prefix__cls-1" data-name="Path 3710" transform="translate(-600.598 -486.448)"/>
</svg>
