<svg xmlns="http://www.w3.org/2000/svg" id="prefix__attributes_icon" width="14.367" height="16" viewBox="0 0 14.367 16">
    <defs>
        <style>
            .prefix__cls-1{fill:#5aaef3}
        </style>
    </defs>
    <path id="prefix__Path_3715" d="M677.2 487.451h-13.238a.525.525 0 0 0-.566.472v3.637a.525.525 0 0 0 .566.472H677.2a.525.525 0 0 0 .566-.472v-3.637a.525.525 0 0 0-.566-.472zm-.566 3.637h-12.1V488.4h12.1z" class="prefix__cls-1" data-name="Path 3715" transform="translate(-663.396 -487.451)"/>
    <path id="prefix__Path_3716" d="M677.2 506.866h-13.238a.525.525 0 0 0-.566.472v3.637a.525.525 0 0 0 .566.472H677.2a.525.525 0 0 0 .566-.472v-3.637a.525.525 0 0 0-.566-.472zm-.566 3.637h-12.1v-2.693h12.1z" class="prefix__cls-1" data-name="Path 3716" transform="translate(-663.396 -501.19)"/>
    <path id="prefix__Path_3717" d="M677.2 526.51h-13.238a.525.525 0 0 0-.566.472v3.637a.525.525 0 0 0 .566.472H677.2a.525.525 0 0 0 .566-.472v-3.637a.525.525 0 0 0-.566-.472zm-.566 3.637h-12.1v-2.693h12.1z" class="prefix__cls-1" data-name="Path 3717" transform="translate(-663.396 -515.091)"/>
</svg>
