<svg xmlns="http://www.w3.org/2000/svg" id="prefix__Layer_1" width="32.002" height="32" data-name="Layer 1" viewBox="0 0 32.002 32">
    <path id="prefix__Path_3462" d="M24.386 27.854a8.966 8.966 0 0 1-2.086-2.917.924.924 0 0 0-1.263-.48 1.039 1.039 0 0 0-.451 1.345 10.969 10.969 0 0 0 2.656 3.692.411.411 0 0 0 .05.047.312.312 0 0 1 .074.211.333.333 0 0 1-.317.332H2.234a.327.327 0 0 1-.317-.332.352.352 0 0 1 .069-.211l.055-.047a11.352 11.352 0 0 0 3.666-8.44v-3.776A7.258 7.258 0 0 1 11 10.1a1.022 1.022 0 0 0 .65-1.2.954.954 0 0 0-1.086-.766 9.254 9.254 0 0 0-6.773 9.141v3.75a9.305 9.305 0 0 1-2.918 6.82.744.744 0 0 0-.1.079 2.453 2.453 0 0 0-.637 2.6 2.22 2.22 0 0 0 2.074 1.537h5.776a4.82 4.82 0 0 0 4.64 4.029 4.82 4.82 0 0 0 4.64-4.029h5.777a2.22 2.22 0 0 0 2.074-1.537 2.453 2.453 0 0 0-.637-2.6zm-11.762 6.23a2.861 2.861 0 0 1-2.676-2.015H15.3a2.856 2.856 0 0 1-2.676 2.015z" data-name="Path 3462" transform="translate(.002 -4.098)" style="fill:#5aaef3"/>
    <path id="prefix__Path_3463" d="M36.235 0a8.21 8.21 0 1 0 8.2 8.207A8.21 8.21 0 0 0 36.235 0z" data-name="Path 3463" transform="translate(-12.438)" style="fill:#be2235"/>
</svg>
