<svg xmlns="http://www.w3.org/2000/svg" id="prefix__Layer_1" width="28" height="32" data-name="Layer 1" viewBox="0 0 28 32">
    <path id="prefix__Path_3502" d="M25.549 1.979H14.916V1A.91.91 0 0013.1 1v.983H2.466a2.416 2.416 0 00-1.743.739A2.579 2.579 0 000 4.515V15.43a2.5 2.5 0 002.456 2.542h10.633v12.217h-3.038a.968.968 0 000 1.935h8.218a.968.968 0 000-1.935h-3.358V17.972h10.633A2.5 2.5 0 0028 15.43V4.515a2.5 2.5 0 00-2.451-2.537zm.663 13.451a.7.7 0 01-.192.488.653.653 0 01-.471.2H2.456a.68.68 0 01-.663-.69V4.515a.68.68 0 01.663-.69h11.417a.534.534 0 00.132 0 .525.525 0 00.127 0h11.417a.653.653 0 01.471.2.7.7 0 01.192.488z" data-name="Path 3502" transform="translate(0 -.124)" style="fill:#4683b6"/>
</svg>
