<svg xmlns="http://www.w3.org/2000/svg" id="prefix__Layer_1" width="32" height="32" data-name="Layer 1" viewBox="0 0 32 32">
    <defs>
        <style>
            .prefix__cls-1{fill:#4683b6}
        </style>
    </defs>
    <path id="prefix__Path_3511" d="M30.985 29.645h-2.559a6.635 6.635 0 00-.154-1.073 1.03 1.03 0 00-1.279-.741 1.085 1.085 0 00-.712 1.332c.025.109.05.212.07.327v.155l-5.321.057v-1.089a1.026 1.026 0 10-2.051 0V29.7c-1.732 0-3.484.041-5.2.052v-.591a1.026 1.026 0 10-2.051 0v.653H7.346v-.734a1.028 1.028 0 00-2.056 0v.731q-1.628 0-3.255-.036c.05-1.622.08-3.244.1-4.866h1.129a1.076 1.076 0 00.02-2.1H2.209v-4.152h.627a1.068 1.068 0 000-2.135h-.622c0-1.85-.03-3.706-.045-5.556h1.15a1.074 1.074 0 000-2.14l-1.17-.016L2.1 4.405h1.3a1.071 1.071 0 000-2.135H2.1l-.031-1.233A1.055 1.055 0 001.034 0 1.057 1.057 0 000 1.078v1.28c.114 9.453.324 18.891 0 28.354a1.111 1.111 0 00.1.518 1 1 0 00.936.7c9.99.181 19.98-.036 29.971-.135a1.078 1.078 0 00-.022-2.15z" class="prefix__cls-1" data-name="Path 3511" transform="translate(.003)"/>
    <path id="prefix__Path_3512" d="M36.082 12.242h-2.051a1.147 1.147 0 00-.139 0 .818.818 0 00-1.025.518c-.5 1.083-.956 2.166-1.389 3.265q-.642-1.208-1.225-2.431a.984.984 0 00-.348-.415l-.025-.047-.055-.031a1.034 1.034 0 00-.921-.123 1.091 1.091 0 00-.667.673c-1.06 3.11-1.991 6.3-2.9 9.489-.572-.637-1.155-1.259-1.742-1.881a1.67 1.67 0 00-1.05-.456.949.949 0 00-.687.513A45.677 45.677 0 0019.68 26.2a11.2 11.2 0 01-1.035-1 .946.946 0 00-.617-.311 1.068 1.068 0 00-.816-.222 1.092 1.092 0 00-.727.445c-.931 1.311-1.837 2.633-2.673 4.006h-.856a1.079 1.079 0 000 2.156h1.369a.98.98 0 00.775-.374 1.023 1.023 0 00.254-.29c.707-1.192 1.493-2.337 2.26-3.467a7.758 7.758 0 002.1 1.612 1.032 1.032 0 001.409-.373 1.068 1.068 0 00.129-.461 44.829 44.829 0 011.758-4.241c.727.783 1.444 1.555 2.125 2.394.607.731 1.493.218 1.687-.518a.123.123 0 01.035-.083q1.2-4.478 2.608-8.883.577 1.1 1.185 2.192a1 1 0 00.681.508.967.967 0 00.812-.213 1.015 1.015 0 00.672-.674c.468-1.384 1.03-2.716 1.618-4.048H36.1c1.286.038 1.306-2.103-.018-2.113z" class="prefix__cls-1" data-name="Path 3512" transform="translate(-5.985 -5.878)"/>
</svg>
