<svg xmlns="http://www.w3.org/2000/svg" width="35.153" height="35.153" viewBox="0 0 35.153 35.153">
    <defs>
        <style>
            .prefix__cls-1{fill:#5aaef3}
        </style>
    </defs>
    <g id="prefix__Group_1598" data-name="Group 1598" transform="translate(-777.362 -490.805)">
        <path id="prefix__Path_3835" d="M803.96 491.135a1.136 1.136 0 0 0-.8-.33h-24.67a1.129 1.129 0 0 0-1.128 1.128v32.9a1.129 1.129 0 0 0 1.128 1.128h32.9a1.129 1.129 0 0 0 1.129-1.128v-24.676a1.118 1.118 0 0 0-.331-.8zm-16.117 1.925h14.192v8.024h-14.192zm17.28 30.642h-20.369v-11.267h20.369zm5.136 0h-2.88v-12.394a1.129 1.129 0 0 0-1.128-1.129h-22.625a1.129 1.129 0 0 0-1.128 1.129V523.7h-2.88v-30.639h5.968v9.152a1.129 1.129 0 0 0 1.128 1.129h16.448a1.129 1.129 0 0 0 1.128-1.129v-7.556l5.968 5.969z" class="prefix__cls-1" data-name="Path 3835"/>
        <path id="prefix__Path_3836" d="M808.034 496.395a1.129 1.129 0 0 0-1.128 1.128v2.652a1.128 1.128 0 0 0 2.256 0v-2.652a1.129 1.129 0 0 0-1.128-1.128z" class="prefix__cls-1" data-name="Path 3836" transform="translate(-9.386 -1.776)"/>
    </g>
</svg>
