<svg xmlns="http://www.w3.org/2000/svg" id="prefix__Layer_1" width="31.76" height="32" data-name="Layer 1" viewBox="0 0 31.76 32">
    <defs>
        <style>
            .prefix__cls-1{fill:#4683b6}
        </style>
    </defs>
    <path id="prefix__Path_3503" d="M10.512 13.763a.717.717 0 00-.8-.145 6.132 6.132 0 01-7.27-1.506h4.669a.717.717 0 00.587-.306l2.352-3.4a.711.711 0 000-.815l-2.331-3.4a.711.711 0 00-.587-.306H2.458A6.231 6.231 0 0113.321 8a10.9 10.9 0 01-.384 2.077.717.717 0 00.182.7l1.194 1.2a.722.722 0 001.225-.519.706.706 0 00-.213-.519l-.914-.893A10.032 10.032 0 0014.738 8a7.643 7.643 0 00-14.3-3.75.717.717 0 00.623 1.07h5.712L8.627 8l-1.859 2.679H1.056a.711.711 0 00-.623 1.064A7.659 7.659 0 007.1 15.638a7.519 7.519 0 002.742-.519s1.226-.489.67-1.356z" class="prefix__cls-1" data-name="Path 3503" transform="translate(-.161 -.176)"/>
    <path id="prefix__Path_3504" d="M6.935 15.652a7.856 7.856 0 01-6.823-3.983.914.914 0 010-.893.9.9 0 01.779-.447h5.6l1.729-2.5-1.729-2.5H.9A.9.9 0 01.112 3.99 7.82 7.82 0 0114.75 7.827a9.949 9.949 0 01-.306 1.994l.831.836a.888.888 0 010 1.267.909.909 0 01-1.257.021l-1.2-1.194a.9.9 0 01-.234-.883 10.64 10.64 0 00.395-2.041A6.029 6.029 0 002.7 3.533h4.266a.9.9 0 01.737.384l2.352 3.4a.919.919 0 010 1.039L7.7 11.737a.914.914 0 01-.737.384H2.7a6.013 6.013 0 006.75 1.163.9.9 0 011.013.177l.026.036a.914.914 0 01.119.789 1.63 1.63 0 01-.878.826 7.669 7.669 0 01-2.8.54zM6.686 4.966l1.983 2.861-1.983 2.861H.9a.524.524 0 00-.462.784 7.477 7.477 0 006.506 3.8 7.27 7.27 0 002.674-.519 1.37 1.37 0 00.665-.6.452.452 0 00-.659-.561 6.392 6.392 0 01-7.472-1.558l-.265-.306h5.084a.519.519 0 00.436-.228L9.76 8.1a.519.519 0 000-.608L7.408 4.125a.55.55 0 00-.442-.225H1.878l.265-.3a6.392 6.392 0 0111.184 4.227 11.611 11.611 0 01-.389 2.124.519.519 0 00.135.519l1.194 1.194a.536.536 0 10.758-.758l-.981-.976.026-.1a10.048 10.048 0 00.322-2A7.462 7.462 0 00.429 4.156a.561.561 0 000 .519.55.55 0 00.462.265z" class="prefix__cls-1" data-name="Path 3504" transform="translate(.004 -.004)"/>
    <path id="prefix__Path_3505" d="M37.046 34.34l8.594 8.578a1.984 1.984 0 01.582 1.4 1.978 1.978 0 01-3.375 1.4L35.119 38a.717.717 0 10-1.013 1.007l7.727 7.727a3.406 3.406 0 005.816-2.4 3.375 3.375 0 00-1-2.409l-8.568-8.594a.725.725 0 00-1.039 1.013z" class="prefix__cls-1" data-name="Path 3505" transform="translate(-16.273 -15.918)"/>
    <path id="prefix__Path_3506" d="M44.114 47.757a3.557 3.557 0 01-2.534-1.039l-7.732-7.742a.9.9 0 010-1.267.914.914 0 011.272 0l7.727 7.727a1.781 1.781 0 001.267.519 1.786 1.786 0 001.267-3.055l-8.594-8.589a.9.9 0 011.272-1.272l8.594 8.594a3.588 3.588 0 01-2.539 6.127zm-9.627-9.949a.519.519 0 00-.379.914l7.727 7.727a3.2 3.2 0 002.274.945 3.225 3.225 0 002.28-5.5L37.8 33.3a.532.532 0 00-.753.753l8.594 8.594a2.155 2.155 0 01-1.527 3.682 2.139 2.139 0 01-1.527-.633l-7.747-7.732a.519.519 0 00-.353-.156z" class="prefix__cls-1" data-name="Path 3506" transform="translate(-16.144 -15.757)"/>
    <path id="prefix__Path_3507" d="M52.18 53.921a.883.883 0 001.506.623.883.883 0 10-1.506-.623z" class="prefix__cls-1" data-name="Path 3507" transform="translate(-25.083 -25.498)"/>
    <path id="prefix__Path_3508" d="M52.893 54.8a1.067 1.067 0 11.748-1.791 1.075 1.075 0 010 1.485 1.039 1.039 0 01-.748.306zm0-1.76a.711.711 0 00-.7.7.7.7 0 00.2.493.706.706 0 00.971 0l.042-.036a.685.685 0 00.187-.478.722.722 0 00-.208-.519.7.7 0 00-.492-.161z" class="prefix__cls-1" data-name="Path 3508" transform="translate(-24.913 -25.318)"/>
    <path id="prefix__Path_3509" d="M23.951 5.621a.685.685 0 00-.171.265l-.743 2.077-7.415 7.389-1.2-1.2a.717.717 0 00-1.163.784L2.038 26.153A3.572 3.572 0 001 28.7a3.6 3.6 0 006.138 2.539L18.353 20.02a.724.724 0 00.784-1.189l-1.2-1.2 7.415-7.379 2.078-.742a.685.685 0 00.265-.171l4.154-4.154a.722.722 0 000-1.013l-2.726-2.71a.706.706 0 00-1.013 0zm-8.827 11.247l2.186 2.181L6.125 30.234a2.176 2.176 0 01-3.707-1.558 2.155 2.155 0 01.639-1.558l11.18-11.133.878.878zM30.312 4.676l-3.541 3.542-2.077.743a.717.717 0 00-.26.166L16.9 16.655l-.291-.291 7.529-7.529a.717.717 0 00.166-.26l.748-2.075 3.541-3.541z" class="prefix__cls-1" data-name="Path 3509" transform="translate(-.478 -.602)"/>
    <path id="prefix__Path_3510" d="M4.429 32.331a3.785 3.785 0 01-2.674-6.439l11.138-11.154a.888.888 0 01.234-.867.9.9 0 011.267 0l1.07 1.07 7.27-7.27.727-2.015a.935.935 0 01.228-.317l4.154-4.154a.919.919 0 011.267 0l2.71 2.706a.909.909 0 010 1.272l-4.154 4.154a.857.857 0 01-.332.208l-2.015.732-7.27 7.27 1.064 1.07a.878.878 0 01.265.633.893.893 0 01-1.127.867L7.108 31.225a3.78 3.78 0 01-2.679 1.106zm9.347-18.356a.519.519 0 00-.493.743l.047.109L2.014 26.131a3.417 3.417 0 002.415 5.836 3.386 3.386 0 002.42-1l11.3-11.3.109.047a.534.534 0 00.587-.872l-1.329-1.324 7.616-7.588 2.051-.743a.706.706 0 00.2-.125l4.154-4.154a.519.519 0 000-.753l-2.7-2.716a.519.519 0 00-.753 0l-4.157 4.155a.556.556 0 00-.125.2l-.784 2.116-7.555 7.545-1.324-1.324a.519.519 0 00-.379-.156zM4.429 30.9a2.354 2.354 0 01-1.662-4.019l11.309-11.3 1 1.007L17.39 18.9 6.1 30.212a2.363 2.363 0 01-1.671.688zm9.648-14.809L3.027 27.143a2.018 2.018 0 001.4 3.422 1.958 1.958 0 001.407-.587L16.886 18.9l-2.077-2.077zm2.69.665l-.545-.545 7.654-7.659a.473.473 0 00.124-.19l.784-2.119 3.671-3.671 1.952 1.952-3.738 3.713-2.077.743a.519.519 0 00-.2.125zm-.031-.545l.031.031 7.4-7.4a.976.976 0 01.327-.208l2.014-.734 3.412-3.38-1.465-1.434-3.386 3.386-.727 2.015a.961.961 0 01-.213.327z" class="prefix__cls-1" data-name="Path 3510" transform="translate(-.319 -.45)"/>
</svg>
